<?xml version="1.0" encoding="UTF-8"?>
<svg width="176px" height="169px" viewBox="0 0 176 169" version="1.1" xmlns="http://www.w3.org/2000/svg" xmlns:xlink="http://www.w3.org/1999/xlink">
    <!-- Generator: sketchtool 52.2 (67145) - http://www.bohemiancoding.com/sketch -->
    <title>47EB8E09-DA11-4FA8-AD5C-9ABAF95C089D</title>
    <desc>Created with sketchtool.</desc>
    <g id="Page-1" stroke="none" stroke-width="1" fill="none" fill-rule="evenodd">
        <g id="Fixtures" transform="translate(-425.000000, -197.000000)">
            <g id="ic_Shield" transform="translate(431.000000, 203.000000)">
                <path d="M33.652579,29.9999988 C34.0493039,28.0057596 34.6249877,26.0483665 35.3744626,24.1507816 C38.7761599,15.5670629 45.5742264,8.77177898 54.1602567,5.37364475 C58.1490897,3.7970626 62.4001846,2.99162735 66.6827411,3.00005981 L67.1195684,3.00026895 C69.5927698,3.02947364 72.0500774,3.32162612 74.451555,3.86863523 L76.4039186,2.64189977 C78.2012552,1.51257298 80.0947079,0.537649567 82.0720961,-0.27572484 C86.3514661,-2.02068204 90.9342973,-2.94412085 95.5579628,-2.99585884 C100.156854,-3.06575915 104.725749,-2.25014808 109.007117,-0.593725843 C117.911136,2.86574826 124.971335,9.75929102 128.525062,18.4795977 C130.014853,22.1592958 130.844035,26.059052 130.980112,30 L159.014798,30 C163.433076,30 167.014798,33.581722 167.014798,38 C167.014798,38.5341024 166.961311,39.0668623 166.855138,39.5903053 L149.19319,126.665205 C148.680805,129.191309 146.982683,131.315791 144.631553,132.372166 L85.3348872,159.014491 C83.2580568,159.947623 80.8820125,159.95162 78.802054,159.025482 L18.9610411,132.380221 C16.5827022,131.321224 14.8684286,129.171151 14.3657248,126.616692 L-2.76957263,39.5447292 C-3.622703,35.2095995 -0.799984869,31.0036838 3.53514478,30.1505534 C4.04395795,30.0504217 4.56130168,30 5.07987396,30 L33.652579,29.9999988 Z" id="Combined-Shape" stroke="#272E33" stroke-width="6" fill="#FFFFFF"></path>
                <path d="M60.1175,104.5025 L64.8775,104.5025 C65.3908359,104.5025 65.8108317,104.619165 66.1375,104.8525 C66.4641683,105.085835 66.6974993,105.394998 66.8375,105.78 L71.7725,119.43 C71.9941678,120.025003 72.2187489,120.672496 72.44625,121.3725 C72.6737511,122.072503 72.8866657,122.807496 73.085,123.5775 C73.2483342,122.807496 73.4379156,122.072503 73.65375,121.3725 C73.8695844,120.672496 74.082499,120.025003 74.2925,119.43 L79.1925,105.78 C79.3091673,105.453332 79.536665,105.158751 79.875,104.89625 C80.213335,104.633749 80.6274976,104.5025 81.1175,104.5025 L85.9125,104.5025 L75.6925,130 L70.3375,130 L60.1175,104.5025 Z M102.2225,109.6825 C102.047499,109.962501 101.863751,110.172499 101.67125,110.3125 C101.478749,110.452501 101.230835,110.5225 100.9275,110.5225 C100.659165,110.5225 100.370418,110.437918 100.06125,110.26875 C99.7520818,110.099582 99.4020853,109.910001 99.01125,109.7 C98.6204147,109.489999 98.1741692,109.300418 97.6725,109.13125 C97.1708308,108.962082 96.5991699,108.8775 95.9575,108.8775 C94.8491611,108.8775 94.0237527,109.113748 93.48125,109.58625 C92.9387473,110.058752 92.6675,110.697496 92.6675,111.5025 C92.6675,112.015836 92.8308317,112.441665 93.1575,112.78 C93.4841683,113.118335 93.912914,113.409999 94.44375,113.655 C94.974586,113.900001 95.5812466,114.124582 96.26375,114.32875 C96.9462534,114.532918 97.6433298,114.760415 98.355,115.01125 C99.0666702,115.262085 99.7637466,115.556665 100.44625,115.895 C101.128753,116.233335 101.735414,116.664997 102.26625,117.19 C102.797086,117.715003 103.225832,118.353746 103.5525,119.10625 C103.879168,119.858754 104.0425,120.765828 104.0425,121.8275 C104.0425,123.005839 103.838335,124.108328 103.43,125.135 C103.021665,126.161672 102.429587,127.05708 101.65375,127.82125 C100.877913,128.58542 99.9212557,129.186248 98.78375,129.62375 C97.6462443,130.061252 96.3541739,130.28 94.9075,130.28 C94.1141627,130.28 93.3062541,130.198334 92.48375,130.035 C91.6612459,129.871666 90.8650038,129.641251 90.095,129.34375 C89.3249962,129.046249 88.60167,128.693335 87.925,128.285 C87.2483299,127.876665 86.6591692,127.421669 86.1575,126.92 L87.9075,124.155 C88.035834,123.944999 88.2166655,123.775834 88.45,123.6475 C88.6833345,123.519166 88.9341653,123.455 89.2025,123.455 C89.5525018,123.455 89.9054149,123.565832 90.26125,123.7875 C90.6170851,124.009168 91.0195811,124.254165 91.46875,124.5225 C91.9179189,124.790835 92.4341637,125.035832 93.0175,125.2575 C93.6008363,125.479168 94.2891627,125.59 95.0825,125.59 C96.1558387,125.59 96.989997,125.353752 97.585,124.88125 C98.180003,124.408748 98.4775,123.659172 98.4775,122.6325 C98.4775,122.037497 98.3141683,121.553335 97.9875,121.18 C97.6608317,120.806665 97.232086,120.497501 96.70125,120.2525 C96.170414,120.007499 95.56667,119.791668 94.89,119.605 C94.21333,119.418332 93.5191702,119.211251 92.8075,118.98375 C92.0958298,118.756249 91.4016701,118.476252 90.725,118.14375 C90.04833,117.811248 89.444586,117.373753 88.91375,116.83125 C88.382914,116.288747 87.9541683,115.612087 87.6275,114.80125 C87.3008317,113.990413 87.1375,112.990006 87.1375,111.8 C87.1375,110.843329 87.3299981,109.910005 87.715,109 C88.1000019,108.089995 88.6658296,107.27917 89.4125,106.5675 C90.1591704,105.85583 91.0749946,105.287085 92.16,104.86125 C93.2450054,104.435415 94.487493,104.2225 95.8875,104.2225 C96.6691706,104.2225 97.430413,104.283749 98.17125,104.40625 C98.912087,104.528751 99.6149967,104.709582 100.28,104.94875 C100.945003,105.187918 101.566247,105.473748 102.14375,105.80625 C102.721253,106.138752 103.237498,106.514998 103.6925,106.935 L102.2225,109.6825 Z" id="VS" fill="#5BBC2E"></path>
                <path d="M78.7205693,65.5079312 L76,68.1103612 C80.1164295,67.0343684 84.4573092,67.0213748 88.5808539,68.0726178 C90.228978,68.5273934 91.8117724,69.1745979 93.293661,70 L99,64.5414558 C98.1364812,63.1226797 97.4586028,61.6079986 96.9818888,60.0308246 C95.8861578,56.0869615 95.8997413,51.9364382 97.0226391,48 L78.7205693,65.5079312 Z" id="Path" fill="#5BBC2E"></path>
                <path d="M55.8985526,78.5439378 C55.4251759,78.5439378 54.9701235,78.3859196 54.6357058,78.1050691 L50.8380029,74.9261489 L44.524532,80.2194444 C44.1885872,80.5002949 44,80.8815862 44,81.2788712 C44,81.6761562 44.1885872,82.0574477 44.524532,82.338298 L49.5873723,86.5772849 C50.2959103,87.140905 51.4068186,87.140905 52.1153567,86.5772849 L53.3812575,85.5184978 L49.5873723,82.3350993 C48.9093747,81.7478083 48.9193003,80.8137727 49.6087506,80.236078 C50.2982007,79.6583833 51.4129267,79.6507063 52.1138296,80.218165 L55.9077148,83.3970851 L67,74.10279 C63.9574094,73.7138217 60.9820078,73.0203321 58.1364029,72.0376754 C57.2430952,71.7261169 56.3849092,71.3640182 55.5274865,71 L53.3827844,72.8047363 L57.1766699,75.9836564 C57.6874586,76.4116495 57.8401607,77.0558783 57.5637699,77.6150203 C57.2873789,78.1741621 56.6361042,78.5394597 55.9130594,78.5394597 L55.8985526,78.5439378 Z" id="Path" fill="#5BBC2E"></path>
                <path d="M47.2233804,60.7991939 C50.1383417,63.7261999 53.6017625,66.0492528 57.4152497,67.6369995 C60.86242,69.074435 64.5411623,69.8747405 68.2733961,70 L68.2808442,69.9891668 L75.4920727,62.7782914 L75.5029065,62.7627186 L75.5205113,62.7512083 L99,39.2749007 C98.8828599,35.5394643 98.0838693,31.8561627 96.6416238,28.408484 C93.4212853,20.7168838 87.3062992,14.6001658 79.6156764,11.377277 C75.9640188,9.85385276 72.0537048,9.04677639 68.0973472,9.00005792 L67.7086858,9.00005792 C63.9236374,8.99261019 60.1717671,9.70354147 56.6514689,11.0949357 C49.0847575,14.0896495 43.0930053,20.0790769 40.0947595,27.6447406 C38.6565763,31.2860634 37.9462873,35.1745195 38.0031646,39.0893814 C38.0512395,43.0455452 38.8583554,46.9556677 40.3805001,50.6071466 C41.9696789,54.421124 44.2948767,57.8843754 47.2233804,60.7991939 Z M85.3243963,20.4575632 C85.9432756,19.8387143 86.9460764,19.8387143 87.5649554,20.4575632 C90.199593,23.07853 92.2911877,26.1937637 93.7205683,29.6238381 C94.7355572,32.0640254 95.3991257,34.6355658 95.6902832,37.2619494 C95.7830473,38.1299626 95.15672,38.9092789 94.2893413,39.0054238 C94.2311099,39.0115176 94.1722012,39.014903 94.1139696,39.014903 C93.3061766,39.0142258 92.6277118,38.4062103 92.5396874,37.6031964 C92.2823853,35.276081 91.6953304,32.9977153 90.7968047,30.8358069 C89.5265449,27.7889582 87.6678762,25.0217425 85.3271048,22.69395 C84.710934,22.0764554 84.7095799,21.0770892 85.3243963,20.4575632 Z M43.0428992,28.8093139 C43.2480638,28.2791623 43.7220412,27.8993217 44.28472,27.8146871 C44.8467219,27.7300525 45.4114321,27.9534879 45.7642069,28.399682 C46.1163045,28.8458762 46.2029746,29.4464439 45.9903618,29.9738872 C45.311897,31.7160077 44.8433364,33.5326064 44.5955139,35.3857676 L44.6923407,42.6758608 C44.9950092,44.563553 45.5157073,46.4099432 46.2442783,48.1777925 C46.4616308,48.7011734 46.383086,49.2997099 46.0391138,49.7499664 C45.6951415,50.1995458 45.1372024,50.4311064 44.5758777,50.357982 C44.0138758,50.2848577 43.5344816,49.9178816 43.317129,49.3951779 C41.9453029,46.1154144 41.2174089,42.6027366 41.1727197,39.0480797 C41.1212591,35.5455579 41.756389,32.0674109 43.0428992,28.8093139 Z" id="Shape" fill="#5BBC2E" fill-rule="nonzero"></path>
                <path d="M104.884055,69.2221018 L102.663209,67 L96,73.6629508 L102.663209,80.3259016 L105.994478,76.9954326 C106.61041,76.4003226 107.589998,76.4090445 108.195866,77.0148894 C108.801734,77.6200633 108.809786,78.5996128 108.214652,79.2161925 L104.884055,82.5466614 L111.547263,89.2096122 L114.877861,85.8771304 C115.267683,85.4484097 115.862146,85.2686021 116.423731,85.410167 C116.985987,85.5517321 117.424118,85.9905166 117.564347,86.5534223 C117.704575,87.1156571 117.52409,87.7094252 117.09401,88.0978905 L113.768109,91.4303723 L114.877861,92.5400812 C115.49111,93.1533063 116.485458,93.1533063 117.098707,92.5400812 L121.539728,88.0992322 C121.834946,87.8046963 122,87.4048255 122,86.9881813 C122,86.5715373 121.834946,86.1716663 121.539728,85.8771304 L115.994323,80.3259016 L112.657686,83.6570415 C112.263167,84.0649635 111.67944,84.2286691 111.130603,84.0850912 C110.581095,83.9415134 110.152357,83.5127927 110.008774,82.9633055 C109.865191,82.4144894 110.028902,81.830785 110.43684,81.4362816 L113.768109,78.1058124 L107.104229,71.4428618 L103.773632,74.7746726 C103.160383,75.3899103 102.164022,75.3912522 101.549431,74.7773563 C100.93417,74.1634605 100.933498,73.1678085 101.546747,72.5532418 L104.884055,69.2221018 Z" id="Path" fill="#5BBC2E"></path>
                <path d="M91.3828973,15.8715509 C94.7814799,19.1353725 97.4786315,23.0144763 99.3207803,27.2856247 C100.992214,31.1516376 101.923646,35.2780947 102.069361,39.4644953 C102.079361,39.8758319 102.007932,40.2851016 101.858646,40.6709449 C101.848646,40.7832528 101.826503,40.8941829 101.792217,41.0016678 C98.7957786,48.0116151 98.1136335,53.6676657 99.6536385,58.8007606 C100.14364,60.4233698 100.853642,61.9770783 101.765074,63.420546 C102.343647,63.4742885 102.89722,63.6741002 103.370079,64 C104.780084,63.652741 106.16366,63.2117771 107.511521,62.6805536 C115.627262,59.3981289 122.082997,53.1736483 125.488722,45.3458508 C127.097299,41.6307303 127.94873,37.6510315 127.996588,33.6251692 C128.057302,29.6427143 127.3073,25.6871308 125.789438,21.9830343 C122.615856,14.288904 116.298693,8.19464566 108.322238,5.13270286 C104.48294,3.66511992 100.380784,2.94166368 96.2514845,3.00367422 C92.0778997,3.04983758 87.952172,3.87113277 84.100731,5.42277435 C82.3257251,6.14416371 80.619291,7.01231131 79,8.01757115 C79.1835722,8.08716072 79.3707155,8.13676915 79.552859,8.20911474 C83.9800163,9.98881736 88.0000292,12.5918822 91.3828973,15.8715509 Z M119.302988,42.8702522 C120.06799,41.0747024 120.615135,39.1985391 120.932993,37.2810353 L121.035137,29.8625073 C120.773707,27.9766978 120.280134,26.1274057 119.563703,24.353904 C119.339417,23.8171683 119.430846,23.2053309 119.802275,22.7512761 C120.174419,22.2972211 120.770136,22.0705381 121.362995,22.1566639 C121.956568,22.2427896 122.45657,22.6286329 122.672999,23.1688137 C124.031575,26.4829328 124.704434,30.0223567 124.653005,33.5865849 C124.607291,37.2004214 123.842288,40.7722287 122.398712,44.107707 C122.173712,44.6444428 121.666567,45.023396 121.070851,45.1005647 C120.475849,45.1770444 119.88299,44.9400263 119.519417,44.4790813 C119.15513,44.0174472 119.075844,43.4035428 119.310845,42.8702522 L119.302988,42.8702522 Z" id="Shape" fill="#5BBC2E" fill-rule="nonzero"></path>
                <path d="M83.5003471,80 C79.9103337,80 77,82.9097948 77,86.5 C77,90.0895107 79.9103337,93 83.5003471,93 C87.0896663,93 90,90.0895107 90,86.5 C90,82.9097948 87.0896663,80 83.5003471,80 Z M83.0289454,86.0285729 C82.9518826,86.0986969 82.8699599,86.1639607 82.7852604,86.2236701 C82.6943124,86.2854625 82.596422,86.3340632 82.4929772,86.3701666 C82.4006408,86.4166845 82.3020562,86.4500107 82.2,86.467368 C82.0930841,86.4861141 81.9840854,86.4972228 81.8750868,86.5 C81.1093191,86.4923627 80.4546328,85.9459516 80.3109213,85.1933348 C80.1672097,84.4407177 80.5740455,83.6915723 81.2828839,83.4020507 C81.9917223,83.1125293 82.8067825,83.3624759 83.2309746,84.000534 C83.6551669,84.6385922 83.5704672,85.4870219 83.0289454,86.0285729 Z" id="Shape" fill="#5BBC2E" fill-rule="nonzero"></path>
            </g>
        </g>
    </g>
</svg>